<svg width="214" height="40" viewBox="0 0 214 40" fill="none" xmlns="http://www.w3.org/2000/svg">
<path d="M61.0049 24.7822H56.874V33H53.168V11.6719H60.668C63.1289 11.6719 65.0283 12.2236 66.3662 13.3271C67.7041 14.4307 68.373 16.0273 68.373 18.1172C68.373 19.543 68.0264 20.7393 67.333 21.7061C66.6494 22.6631 65.6924 23.4004 64.4619 23.918L69.252 32.8096V33H65.2822L61.0049 24.7822ZM56.874 21.8086H60.6826C61.9326 21.8086 62.9092 21.4961 63.6123 20.8711C64.3154 20.2363 64.667 19.3721 64.667 18.2783C64.667 17.1357 64.3398 16.252 63.6855 15.627C63.041 15.002 62.0742 14.6797 60.7852 14.6602H56.874V21.8086ZM70.8779 24.9287C70.8779 23.376 71.1855 21.9795 71.8008 20.7393C72.416 19.4893 73.2803 18.5322 74.3936 17.8682C75.5068 17.1943 76.7861 16.8574 78.2314 16.8574C80.3701 16.8574 82.1035 17.5459 83.4316 18.9229C84.7695 20.2998 85.4922 22.126 85.5996 24.4014L85.6143 25.2363C85.6143 26.7988 85.3115 28.1953 84.7061 29.4258C84.1104 30.6562 83.251 31.6084 82.1279 32.2822C81.0146 32.9561 79.7256 33.293 78.2607 33.293C76.0244 33.293 74.2324 32.5508 72.8848 31.0664C71.5469 29.5723 70.8779 27.585 70.8779 25.1045V24.9287ZM74.4375 25.2363C74.4375 26.8672 74.7744 28.1465 75.4482 29.0742C76.1221 29.9922 77.0596 30.4512 78.2607 30.4512C79.4619 30.4512 80.3945 29.9824 81.0586 29.0449C81.7324 28.1074 82.0693 26.7354 82.0693 24.9287C82.0693 23.3271 81.7227 22.0576 81.0293 21.1201C80.3457 20.1826 79.4131 19.7139 78.2314 19.7139C77.0693 19.7139 76.1465 20.1777 75.4629 21.1055C74.7793 22.0234 74.4375 23.4004 74.4375 25.2363ZM87.958 24.9287C87.958 23.376 88.2656 21.9795 88.8809 20.7393C89.4961 19.4893 90.3604 18.5322 91.4736 17.8682C92.5869 17.1943 93.8662 16.8574 95.3115 16.8574C97.4502 16.8574 99.1836 17.5459 100.512 18.9229C101.85 20.2998 102.572 22.126 102.68 24.4014L102.694 25.2363C102.694 26.7988 102.392 28.1953 101.786 29.4258C101.19 30.6562 100.331 31.6084 99.208 32.2822C98.0947 32.9561 96.8057 33.293 95.3408 33.293C93.1045 33.293 91.3125 32.5508 89.9648 31.0664C88.627 29.5723 87.958 27.585 87.958 25.1045V24.9287ZM91.5176 25.2363C91.5176 26.8672 91.8545 28.1465 92.5283 29.0742C93.2021 29.9922 94.1396 30.4512 95.3408 30.4512C96.542 30.4512 97.4746 29.9824 98.1387 29.0449C98.8125 28.1074 99.1494 26.7354 99.1494 24.9287C99.1494 23.3271 98.8027 22.0576 98.1094 21.1201C97.4258 20.1826 96.4932 19.7139 95.3115 19.7139C94.1494 19.7139 93.2266 20.1777 92.543 21.1055C91.8594 22.0234 91.5176 23.4004 91.5176 25.2363ZM109.052 17.1504L109.154 18.8057C110.268 17.5068 111.791 16.8574 113.725 16.8574C115.844 16.8574 117.294 17.668 118.075 19.2891C119.228 17.668 120.849 16.8574 122.938 16.8574C124.687 16.8574 125.985 17.3408 126.835 18.3076C127.694 19.2744 128.134 20.7002 128.153 22.585V33H124.594V22.6875C124.594 21.6816 124.374 20.9443 123.935 20.4756C123.495 20.0068 122.768 19.7725 121.752 19.7725C120.941 19.7725 120.277 19.9922 119.76 20.4316C119.252 20.8613 118.896 21.4277 118.69 22.1309L118.705 33H115.146V22.5703C115.097 20.7051 114.145 19.7725 112.289 19.7725C110.863 19.7725 109.853 20.3535 109.257 21.5156V33H105.697V17.1504H109.052ZM133.866 17.1504L133.925 19.7285C134.511 18.7715 135.243 18.0537 136.122 17.5752C137.001 17.0967 137.978 16.8574 139.052 16.8574C141.552 16.8574 143.139 17.8828 143.812 19.9336C144.379 18.9473 145.136 18.1904 146.083 17.6631C147.03 17.126 148.075 16.8574 149.218 16.8574C152.616 16.8574 154.35 18.7129 154.418 22.4238V33H152.66V22.5557C152.65 21.1396 152.343 20.0898 151.737 19.4062C151.142 18.7227 150.165 18.3809 148.808 18.3809C147.548 18.4004 146.483 18.8105 145.614 19.6113C144.745 20.4023 144.262 21.3691 144.164 22.5117V33H142.406V22.4238C142.396 21.0664 142.074 20.0557 141.439 19.3916C140.814 18.7178 139.848 18.3809 138.539 18.3809C137.436 18.3809 136.488 18.6982 135.697 19.333C134.906 19.958 134.32 20.8906 133.939 22.1309V33H132.182V17.1504H133.866ZM168.876 33C168.7 32.502 168.588 31.7646 168.539 30.7881C167.924 31.5889 167.138 32.209 166.181 32.6484C165.233 33.0781 164.228 33.293 163.163 33.293C161.64 33.293 160.404 32.8682 159.457 32.0186C158.52 31.1689 158.051 30.0947 158.051 28.7959C158.051 27.2529 158.69 26.0322 159.97 25.1338C161.259 24.2354 163.051 23.7861 165.346 23.7861H168.524V21.9844C168.524 20.8516 168.173 19.9629 167.47 19.3184C166.776 18.6641 165.761 18.3369 164.423 18.3369C163.202 18.3369 162.191 18.6494 161.391 19.2744C160.59 19.8994 160.189 20.6514 160.189 21.5303L158.432 21.5156C158.432 20.2559 159.018 19.167 160.189 18.249C161.361 17.3213 162.802 16.8574 164.511 16.8574C166.278 16.8574 167.67 17.3018 168.686 18.1904C169.711 19.0693 170.238 20.2998 170.268 21.8818V29.3818C170.268 30.915 170.429 32.0625 170.751 32.8242V33H168.876ZM163.368 31.7402C164.54 31.7402 165.585 31.457 166.503 30.8906C167.431 30.3242 168.104 29.5674 168.524 28.6201V25.1338H165.39C163.642 25.1533 162.274 25.4756 161.288 26.1006C160.302 26.7158 159.809 27.5654 159.809 28.6494C159.809 29.5381 160.136 30.2754 160.79 30.8613C161.454 31.4473 162.313 31.7402 163.368 31.7402ZM177.68 13.0928V17.1504H180.961V18.5859H177.68V29.1475C177.68 30.0264 177.836 30.6807 178.148 31.1104C178.471 31.54 179.003 31.7549 179.745 31.7549C180.038 31.7549 180.512 31.7061 181.166 31.6084L181.239 33.0439C180.78 33.21 180.155 33.293 179.364 33.293C178.163 33.293 177.289 32.9463 176.742 32.2529C176.195 31.5498 175.922 30.5195 175.922 29.1621V18.5859H173.007V17.1504H175.922V13.0928H177.68ZM190.731 33.293C189.384 33.293 188.163 32.9609 187.069 32.2969C185.985 31.6328 185.141 30.71 184.535 29.5283C183.93 28.3369 183.627 27.0039 183.627 25.5293V24.8994C183.627 23.376 183.92 22.0039 184.506 20.7832C185.102 19.5625 185.927 18.6055 186.981 17.9121C188.036 17.209 189.179 16.8574 190.409 16.8574C192.333 16.8574 193.856 17.5166 194.979 18.835C196.112 20.1436 196.679 21.9355 196.679 24.2109V25.1924H185.37V25.5293C185.37 27.3262 185.883 28.8252 186.908 30.0264C187.943 31.2178 189.242 31.8135 190.805 31.8135C191.742 31.8135 192.567 31.6426 193.28 31.3008C194.003 30.959 194.657 30.4121 195.243 29.6602L196.342 30.4951C195.053 32.3604 193.183 33.293 190.731 33.293ZM190.409 18.3516C189.091 18.3516 187.978 18.835 187.069 19.8018C186.171 20.7686 185.624 22.0674 185.429 23.6982H194.936V23.5078C194.887 21.9844 194.452 20.7441 193.632 19.7871C192.812 18.8301 191.737 18.3516 190.409 18.3516ZM209.584 28.9717C209.584 28.1025 209.232 27.4043 208.529 26.877C207.836 26.3496 206.786 25.9395 205.38 25.6465C203.974 25.3438 202.88 25.002 202.099 24.6211C201.327 24.2305 200.751 23.7568 200.37 23.2002C199.999 22.6436 199.813 21.9697 199.813 21.1787C199.813 19.9287 200.336 18.8984 201.381 18.0879C202.426 17.2676 203.764 16.8574 205.395 16.8574C207.162 16.8574 208.578 17.2969 209.643 18.1758C210.717 19.0449 211.254 20.1826 211.254 21.5889H209.496C209.496 20.6611 209.105 19.8896 208.324 19.2744C207.553 18.6592 206.576 18.3516 205.395 18.3516C204.242 18.3516 203.314 18.6104 202.611 19.1279C201.918 19.6357 201.571 20.2998 201.571 21.1201C201.571 21.9111 201.859 22.5264 202.436 22.9658C203.021 23.3955 204.081 23.791 205.614 24.1523C207.157 24.5137 208.31 24.8994 209.071 25.3096C209.843 25.7197 210.414 26.2129 210.785 26.7891C211.156 27.3652 211.342 28.0635 211.342 28.8838C211.342 30.2217 210.8 31.291 209.716 32.0918C208.642 32.8926 207.235 33.293 205.497 33.293C203.651 33.293 202.152 32.8486 201 31.96C199.857 31.0615 199.286 29.9287 199.286 28.5615H201.044C201.112 29.5869 201.542 30.3877 202.333 30.9639C203.134 31.5303 204.188 31.8135 205.497 31.8135C206.718 31.8135 207.704 31.5449 208.456 31.0078C209.208 30.4707 209.584 29.792 209.584 28.9717Z" fill="#333333"/>
<path d="M25.8369 15.9274C25.8484 16.0211 25.8557 16.1155 25.8588 16.2102C25.8588 16.7999 25.2465 18.5324 23.2219 19.0982C23.8329 19.3684 24.827 19.3457 25.2374 19.2154C25.6386 21.3371 24.9702 23.0228 24.6547 23.3762C23.0039 25.2275 21.5775 27.2654 22.3997 28.7971C23.295 30.4662 25.9254 29.3983 27.2723 27.1002C27.157 29.2312 26.7336 31.8857 26.2854 34.1184C25.9911 35.584 26.8927 37 28.1166 37H32.1278C33.9406 33.2057 34.9805 28.7817 34.9805 24.0593C34.9825 21.2949 34.6205 18.5486 33.9085 15.9274H37.5912C39.1206 15.9274 39.6375 13.407 38.2928 12.5104L29.334 6.53528L19.5333 0L9.73519 6.53528L0.775454 12.5104C-0.570584 13.407 -0.053564 15.9274 1.47585 15.9274H5.15971C4.44757 18.5485 4.08553 21.2949 4.08774 24.0593C4.08774 28.7817 5.1273 33.2057 6.94017 37H10.9501C12.1743 37 13.0756 35.584 12.7816 34.1184C12.3331 31.8857 11.9096 29.2312 11.7944 27.1002C13.1416 29.3983 15.7719 30.4662 16.6669 28.7971C17.4891 27.2654 16.0628 25.2275 14.4119 23.3762C14.0964 23.0228 13.4281 21.3371 13.8295 19.2154C14.24 19.3457 15.2337 19.3684 15.8451 19.0982C13.8205 18.5324 13.2083 16.7999 13.2083 16.2102C13.2113 16.1155 13.2186 16.0211 13.2301 15.9274C13.3054 15.2287 13.6 13.4807 14.3499 11.7736C13.9816 11.6786 13.6551 11.4185 13.4334 11.0436C13.2116 10.6686 13.1106 10.2056 13.1497 9.74405C13.2228 8.85745 13.8155 8.14333 14.5358 8.07261C14.8482 8.0404 15.161 8.12834 15.4312 8.32433C15.7014 8.52032 15.9157 8.81475 16.0447 9.16713C16.6739 8.52784 17.4155 8.07897 18.2104 7.85641C18.2993 7.83172 18.3915 7.8307 18.4808 7.85341C18.5701 7.87613 18.6544 7.92206 18.7282 7.98814C18.8019 8.05423 18.8634 8.13895 18.9085 8.23666C18.9537 8.33437 18.9814 8.44282 18.9899 8.55479C19.0989 9.98769 19.1378 12.3041 19.1036 12.6744C19.0655 13.0874 17.4561 14.8964 17.1902 15.9274C17.1599 16.0291 17.1477 16.1375 17.1543 16.2455C17.2406 17.1649 18.8021 17.9612 19.5333 17.9612C20.2649 17.9612 21.8263 17.1649 21.9126 16.2455C21.9191 16.1376 21.907 16.0292 21.8771 15.9274C21.6121 14.8964 20.0023 13.0874 19.9634 12.6744C19.9289 12.3041 19.9691 9.98769 20.0771 8.55479C20.0857 8.44291 20.1135 8.33458 20.1586 8.23697C20.2037 8.13936 20.2652 8.05472 20.3389 7.98866C20.4126 7.92261 20.4968 7.87666 20.586 7.85385C20.6752 7.83105 20.7674 7.83192 20.8563 7.85641L25.8369 15.9274ZM24.5324 8.07261C25.2901 8.14759 25.8964 8.93391 25.9241 9.87007L24.5324 8.07261ZM19.5336 14.8314C19.5336 15.0761 19.2518 15.274 18.903 15.274C18.5557 15.274 18.2727 15.0761 18.2727 14.8314C18.2727 14.5883 18.5557 14.3901 18.903 14.3901C19.2518 14.3901 19.5336 14.5883 19.5336 14.8314Z" fill="#2B67F6"/>
<path d="M11.4344 8.07263L20.6307 4.80391L29.3537 9.87007L28.948 37H10.9501" fill="#2B67F6"/>
<path d="M12.9532 22.4086C13.0371 21.4035 12.4445 20.5049 11.6297 20.4014C10.8149 20.2979 10.0864 21.0288 10.0025 22.0339C9.91859 23.039 10.5111 23.9377 11.3259 24.0412C12.1407 24.1446 12.8693 23.4137 12.9532 22.4086Z" fill="white"/>
<path d="M14.6131 16.1907C14.0095 17.1889 14.0268 19.2972 13.506 22.6537C13.3096 23.9196 12.3786 24.6382 11.3364 24.5392C10.2144 24.4325 9.21674 23.2897 8.49524 22.3266C8.11618 21.8207 6.60089 19.5045 6.3748 19.1328C6.25442 21.2148 7.50342 23.8733 8.26643 25.8976C8.60733 26.8019 9.62019 29.9501 9.42439 29.9708C12.5258 29.6431 15.1287 28.2999 16.9969 27.5085C16.3489 26.249 14.6753 20.7483 14.6131 16.1907Z" fill="white"/>
<path d="M24.2776 15.274C23.3649 16.4833 22.175 19.7614 21.5854 20.9406C21.1544 21.8026 20.8955 22.5004 19.8705 22.7244C18.8361 22.9504 17.8422 22.0575 17.0471 21.1043C15.7948 19.603 15.1708 17.0257 14.9462 16.2873C14.7579 19.4462 16.5039 25.772 17.2773 27.381C18.3851 26.9328 20.4196 25.9111 23.4182 26.64C23.0665 24.1636 23.3977 18.4821 24.2776 15.274Z" fill="white"/>
<path d="M32.7005 19.1384C32.4182 19.6431 31.0432 23.0534 29.4355 24.296C28.7051 24.8606 27.9881 25.3434 27.1436 24.9164C25.9655 24.3207 25.6398 23.0603 25.248 21.0332C25.0286 19.8982 24.8541 16.4925 24.5323 15.3479C23.5488 19.6456 23.5536 24.5527 23.7953 26.7562C25.5556 27.0787 28.137 28.423 30.0779 30.0647C30.1631 27.3198 30.675 27.0778 31.5837 24.6206C32.8415 21.2195 32.6808 20.0419 32.7005 19.1384Z" fill="white"/>
<path d="M20.8644 20.971C21.1218 20.0117 20.7001 18.9767 19.9224 18.6592C19.1448 18.3417 18.3058 18.8619 18.0484 19.8211C17.7909 20.7803 18.2127 21.8154 18.9903 22.1329C19.7679 22.4504 20.607 21.9302 20.8644 20.971Z" fill="white"/>
<path d="M27.4195 24.3732C27.7051 24.456 28.0041 24.4325 28.2788 24.3056C28.5535 24.1787 28.7916 23.9542 28.9629 23.6605C29.1341 23.3667 29.2309 23.0169 29.241 22.6553C29.2511 22.2936 29.1741 21.9364 29.0196 21.6288C28.8651 21.3212 28.6402 21.077 28.3732 20.9271C28.1062 20.7772 27.8092 20.7283 27.5197 20.7867C27.2302 20.845 26.9612 21.0079 26.7468 21.2548C26.5323 21.5017 26.3821 21.8215 26.315 22.1737C26.225 22.6461 26.2908 23.1432 26.498 23.5556C26.7051 23.9681 27.0366 24.2622 27.4195 24.3732Z" fill="white"/>
</svg>
